<svg width="48" height="48" viewBox="0 0 48 48" version="1.1" xmlns="http://www.w3.org/2000/svg" xmlns:xlink="http://www.w3.org/1999/xlink">
<title>MySQL</title>
<desc>Created using Figma</desc>
<g id="Canvas" transform="translate(-344 -183)">
<clipPath id="clip-0" clip-rule="evenodd">
<path d="M 344 183L 392 183L 392 231L 344 231L 344 183Z" fill="#FFFFFF"/>
</clipPath>
<g id="MySQL" clip-path="url(#clip-0)">
<g id="Group 2">
<g id="Path">
<use xlink:href="#path0_fill" transform="translate(345 183)" fill="#F1F4F7"/>
</g>
<g id="Fill 3">
<use xlink:href="#path1_fill" transform="translate(345 183)" fill="url(#paint1_linear)"/>
</g>
<g id="Page 1">
<g id="Fill 1">
<use xlink:href="#path2_fill" transform="translate(357 194)" fill="#498CB7"/>
</g>
<g id="Fill 4">
<use xlink:href="#path3_fill" transform="translate(360.533 197.248)" fill="#4B8DB7"/>
</g>
</g>
</g>
</g>
</g>
<defs>
<linearGradient id="paint1_linear" x1="0" y1="0" x2="1" y2="0" gradientUnits="userSpaceOnUse" gradientTransform="matrix(34.4772 46.5291 -44.5904 35.9762 9.97395 3.42875)">
<stop offset="0" stop-color="#4F90B9"/>
<stop offset="1" stop-color="#1CB2FF"/>
</linearGradient>
<path id="path0_fill" fill-rule="evenodd" d="M 23.0025 0.00283048L 23.0025 0L 22.9972 0L 22.9972 0.00283048L 0 11.3552C 0 38.7967 22.6163 47.8457 22.9972 47.9972L 22.9972 48L 23 47.9986L 23.0025 48L 23.0025 47.9972C 23.3844 47.8457 46 38.7967 46 11.3552L 23.0025 0.00283048Z"/>
<path id="path1_fill" fill-rule="evenodd" d="M 23.0025 0.00283048L 23.0025 0L 22.9972 0L 22.9972 0.00283048L 0 11.3552C 0 38.7967 22.6163 47.8457 22.9972 47.9972L 22.9972 48L 23 47.9986L 23.0025 48L 23.0025 47.9972C 23.3844 47.8457 46 38.7967 46 11.3552L 23.0025 0.00283048ZM 23.0025 44.9986L 23.0025 45L 22.9971 45L 22.9971 44.9986C 22.6659 44.8656 3 36.946 3 12.9366L 22.9971 3.00179L 22.9971 3L 23 3.00143L 23.0025 3L 23.0025 3.00179L 43 12.9366C 43 36.946 23.3337 44.8656 23.0025 44.9986Z"/>
<path id="path2_fill" fill-rule="evenodd" d="M 22.2245 21.9317C 22.3921 21.7403 22.4753 21.4961 22.4589 21.242C 22.4424 20.989 22.3296 20.758 22.1391 20.5908L 18.0604 16.9872L 20.8007 16.3261L 19.2235 15.115C 18.0757 14.2317 16.0233 12.706 15.0102 12.2715C 14.9017 12.0053 14.7506 11.4608 14.6268 11.0175L 14.4691 11.0626L 14.6159 10.9768C 14.1252 9.20694 13.387 6.53394 11.6204 4.69364C 9.70702 2.69824 7.80021 1.35184 4.71711 1.26494C 3.93402 1.24294 3.33821 0.871137 2.80592 0.538937C 2.2353 0.181437 1.27697 -0.413663 0.484017 0.432237C 0.308778 0.619237 -0.0570311 1.00974 0.0108737 1.44534C -0.0121263 1.72804 0.00101652 2.08334 0.0535879 2.53324C 0.195969 3.76854 0.726064 4.49234 1.30216 5.18204C 1.49054 5.41634 1.88702 6.52074 2.48721 8.48094C 2.57264 8.75924 2.64164 8.98474 2.68873 9.12554C 2.68654 9.28284 2.65697 9.63704 2.63506 9.89994C 2.45654 12.0526 2.38316 14.0623 3.42911 15.005C 4.06106 15.5737 4.68097 15.4439 4.91645 15.3625C 5.3644 15.2129 5.75211 14.829 6.07192 14.2196C 6.91416 15.4461 8.01049 16.8915 8.76073 17.3194C 8.88011 17.3865 9.01264 17.4272 9.17144 17.4404C 9.17254 17.4426 9.17473 17.4437 9.17583 17.4448C 9.23825 17.5075 9.33354 17.5185 9.40911 17.4712L 9.53068 17.3865L 9.49783 17.2644C 9.49454 17.2534 9.49235 17.2435 9.48797 17.2347C 9.64349 16.9168 9.63692 16.4504 9.46716 16.1875C 9.35983 16.0214 9.19444 15.9422 9.02687 15.962C 8.79687 15.9004 8.02254 14.6475 7.12554 13.1966C 6.88678 12.8105 6.62721 12.3903 6.35887 11.9657L 5.35454 9.37744L 4.86168 11.8733C 4.78173 12.2792 4.64264 12.7401 4.50025 13.0932C 4.34035 12.2231 4.47287 10.6369 4.52106 10.055C 4.58897 9.22344 4.61854 8.87804 4.49478 8.55904C 4.46411 8.47984 4.40278 8.27634 4.31954 8.00244L 4.29216 7.91334C 3.63283 5.75624 3.19254 4.48904 2.75445 3.96434C 2.31197 3.43414 2.01516 3.03154 1.93302 2.31544C 1.92864 2.28354 1.92535 2.25384 1.92316 2.22524C 2.54197 2.60914 3.44445 3.13054 4.66454 3.16464C 7.01383 3.23064 8.60083 3.95444 10.3203 5.74964C 11.6127 7.09714 12.2173 9.34774 12.6598 10.9911L 12.7956 11.4905C 13.2019 12.9623 13.4473 13.85 14.2676 14.0128C 14.5458 14.0964 16.2675 14.8059 17.4263 15.5418L 13.9872 15.9697L 22.2245 21.9317Z"/>
<path id="path3_fill" fill-rule="evenodd" d="M 0.135582 0.308045C -0.169989 0.746945 0.0797253 1.43115 0.499201 1.72595L 0.65582 1.83595C 1.06763 2.12305 1.83211 2.65985 1.9022 2.84245C 2.09715 3.33195 2.2702 3.56185 2.77949 3.62675C 2.82001 3.63115 2.85944 3.63335 2.89887 3.63335C 3.28987 3.63335 3.38187 3.55855 3.41363 3.20655C 3.41801 3.16145 3.42239 3.10755 3.43006 3.04705C 3.58449 1.82495 2.6163 0.426845 1.38196 0.106745C 0.964678 4.54187e-05 0.44663 -0.136355 0.135582 0.308045Z"/>
</defs>
</svg>
